<mxfile host="app.diagrams.net" agent="Mozilla/5.0 (Windows NT 10.0; Win64; x64) AppleWebKit/537.36 (KHTML, like Gecko) Chrome/134.0.0.0 Safari/537.36 OPR/119.0.0.0" version="26.2.14">
  <diagram name="PÃ¡gina-1" id="9usZb8fV5oRk4jE3j_81">
    <mxGraphModel dx="1372" dy="743" grid="1" gridSize="10" guides="1" tooltips="1" connect="1" arrows="1" fold="1" page="1" pageScale="1" pageWidth="827" pageHeight="1169" math="0" shadow="0">
      <root>
        <mxCell id="0" />
        <mxCell id="1" parent="0" />
        <mxCell id="XLPlKZzTIefhunMV901S-5" style="edgeStyle=orthogonalEdgeStyle;rounded=0;orthogonalLoop=1;jettySize=auto;html=1;entryX=0;entryY=0.5;entryDx=0;entryDy=0;" edge="1" parent="1" source="XLPlKZzTIefhunMV901S-1" target="XLPlKZzTIefhunMV901S-2">
          <mxGeometry relative="1" as="geometry" />
        </mxCell>
        <mxCell id="XLPlKZzTIefhunMV901S-1" value="Solicitada" style="ellipse;whiteSpace=wrap;html=1;aspect=fixed;" vertex="1" parent="1">
          <mxGeometry x="80" y="200" width="80" height="80" as="geometry" />
        </mxCell>
        <mxCell id="XLPlKZzTIefhunMV901S-6" style="edgeStyle=orthogonalEdgeStyle;rounded=0;orthogonalLoop=1;jettySize=auto;html=1;exitX=0.95;exitY=0.75;exitDx=0;exitDy=0;entryX=0.5;entryY=0;entryDx=0;entryDy=0;exitPerimeter=0;" edge="1" parent="1" source="XLPlKZzTIefhunMV901S-2" target="XLPlKZzTIefhunMV901S-4">
          <mxGeometry relative="1" as="geometry" />
        </mxCell>
        <mxCell id="XLPlKZzTIefhunMV901S-7" style="edgeStyle=orthogonalEdgeStyle;rounded=0;orthogonalLoop=1;jettySize=auto;html=1;entryX=0.5;entryY=1;entryDx=0;entryDy=0;exitX=0.888;exitY=0.263;exitDx=0;exitDy=0;exitPerimeter=0;" edge="1" parent="1" source="XLPlKZzTIefhunMV901S-2" target="XLPlKZzTIefhunMV901S-3">
          <mxGeometry relative="1" as="geometry">
            <mxPoint x="320" y="220" as="sourcePoint" />
          </mxGeometry>
        </mxCell>
        <mxCell id="XLPlKZzTIefhunMV901S-2" value="En Proceso" style="ellipse;whiteSpace=wrap;html=1;aspect=fixed;" vertex="1" parent="1">
          <mxGeometry x="240" y="200" width="80" height="80" as="geometry" />
        </mxCell>
        <mxCell id="XLPlKZzTIefhunMV901S-8" style="edgeStyle=orthogonalEdgeStyle;rounded=0;orthogonalLoop=1;jettySize=auto;html=1;exitX=0;exitY=0.5;exitDx=0;exitDy=0;entryX=0.5;entryY=0;entryDx=0;entryDy=0;" edge="1" parent="1" source="XLPlKZzTIefhunMV901S-3" target="XLPlKZzTIefhunMV901S-2">
          <mxGeometry relative="1" as="geometry" />
        </mxCell>
        <mxCell id="XLPlKZzTIefhunMV901S-3" value="Rechazada" style="ellipse;whiteSpace=wrap;html=1;aspect=fixed;" vertex="1" parent="1">
          <mxGeometry x="400" y="120" width="80" height="80" as="geometry" />
        </mxCell>
        <mxCell id="XLPlKZzTIefhunMV901S-9" style="edgeStyle=orthogonalEdgeStyle;rounded=0;orthogonalLoop=1;jettySize=auto;html=1;entryX=0.5;entryY=1;entryDx=0;entryDy=0;" edge="1" parent="1" source="XLPlKZzTIefhunMV901S-4" target="XLPlKZzTIefhunMV901S-2">
          <mxGeometry relative="1" as="geometry" />
        </mxCell>
        <mxCell id="XLPlKZzTIefhunMV901S-4" value="Completada" style="ellipse;whiteSpace=wrap;html=1;aspect=fixed;" vertex="1" parent="1">
          <mxGeometry x="400" y="280" width="80" height="80" as="geometry" />
        </mxCell>
      </root>
    </mxGraphModel>
  </diagram>
</mxfile>
